<svg width="1427" height="453" viewBox="0 0 1427 453" fill="none" xmlns="http://www.w3.org/2000/svg">
<path opacity="0.3" d="M81.9255 370.402C57.4307 370.402 37.57 363.947 22.3435 351.038C7.44796 338.128 0.000204175 321.412 0.000204175 300.889C0.000204175 279.374 7.77897 261.995 23.3365 248.755C39.2251 235.515 61.5683 226.081 90.3663 220.453L163.851 206.054V185.201C163.851 166.995 158.886 153.093 148.955 143.493C139.356 133.894 126.943 129.094 111.717 129.094C95.497 129.094 81.9256 134.556 71.0022 145.479C60.4098 156.072 55.1136 171.795 55.1136 192.649L4.96538 181.229C7.28246 166.664 12.9097 153.424 21.847 141.507C31.1153 129.591 43.3627 120.157 58.5892 113.206C73.8158 106.255 91.6904 102.779 112.213 102.779C143.659 102.779 168.651 110.889 187.187 127.108C205.724 143.328 214.992 166.333 214.992 196.124V336.142L232.37 361.464V365.437H163.851V321.246C155.907 336.473 144.818 348.555 130.584 357.492C116.682 366.099 100.462 370.402 81.9255 370.402ZM163.851 282.518V230.384L107.744 241.804C71.3332 250.741 53.1276 268.781 53.1276 295.924C53.1276 307.841 57.0997 317.605 65.044 325.219C73.3193 332.832 84.2426 336.639 97.8141 336.639C115.358 336.639 129.591 331.342 140.515 320.75C151.769 310.158 159.548 297.414 163.851 282.518ZM341.166 365.437L257.254 137.039L233.421 111.716V107.744H321.305V111.716L309.389 136.542L368.474 307.841L426.567 136.542L414.65 111.716L415.147 107.744H485.652V111.716L462.316 137.039L375.922 365.437H341.166ZM536.549 463.25C519.006 463.25 505.765 459.775 496.828 452.824L510.234 406.151C519.833 414.095 531.253 418.067 544.493 418.067C555.086 418.067 564.685 414.757 573.291 408.137C582.229 401.848 589.677 391.586 595.635 377.353L601.593 360.968L514.702 137.039L491.366 111.716V107.744H580.243L580.739 111.716L568.326 136.542L627.908 302.875L686.497 136.542L674.084 111.716L674.581 107.744H746.079V111.716L721.75 137.039L623.44 390.262C613.178 416.412 600.765 435.114 586.201 446.369C571.636 457.623 555.086 463.25 536.549 463.25ZM830.58 370.402C806.086 370.402 786.225 363.947 770.998 351.038C756.103 338.128 748.655 321.412 748.655 300.889C748.655 279.374 756.434 261.995 771.991 248.755C787.88 235.515 810.223 226.081 839.021 220.453L912.506 206.054V185.201C912.506 166.995 907.541 153.093 897.61 143.493C888.011 133.894 875.598 129.094 860.371 129.094C844.152 129.094 830.58 134.556 819.657 145.479C809.065 156.072 803.769 171.795 803.769 192.649L753.62 181.229C755.937 166.664 761.565 153.424 770.502 141.507C779.77 129.591 792.018 120.157 807.244 113.206C822.471 106.255 840.345 102.779 860.868 102.779C892.314 102.779 917.305 110.889 935.842 127.108C954.379 143.328 963.647 166.333 963.647 196.124V336.142L981.025 361.464V365.437H912.506V321.246C904.562 336.473 893.473 348.555 879.239 357.492C865.337 366.099 849.117 370.402 830.58 370.402ZM912.506 282.518V230.384L856.399 241.804C819.988 250.741 801.782 268.781 801.782 295.924C801.782 307.841 805.755 317.605 813.699 325.219C821.974 332.832 832.898 336.639 846.469 336.639C864.013 336.639 878.246 331.342 889.169 320.75C900.424 310.158 908.203 297.414 912.506 282.518ZM1172.42 107.744H1256.83V111.716L1218.1 137.535L1149.09 198.607L1244.92 337.632L1273.71 361.464V365.437H1178.38L1177.39 361.464L1183.84 338.625L1111.85 231.377L1079.58 260.175V338.128L1096.95 361.464V365.437H1011.06V361.464L1028.43 338.128V41.7073L1011.06 16.3849V12.4128L1079.58 -0.000197297V218.964L1169.94 136.542L1170.94 111.716L1172.42 107.744ZM1381.43 370.402C1361.24 370.402 1344.19 364.609 1330.29 353.024C1316.72 341.438 1309.93 322.736 1309.93 296.917V138.032H1265.74V113.206C1279.98 111.882 1291.56 109.234 1300.5 105.261C1309.77 100.958 1316.88 94.1726 1321.85 84.9043C1327.15 75.3049 1330.95 62.0645 1333.27 45.1829H1361.07V107.744L1424.13 104.268L1426.12 138.032H1361.07V298.407C1361.07 312.64 1364.55 322.736 1371.5 328.694C1378.45 334.321 1386.73 337.135 1396.33 337.135C1400.96 337.135 1405.6 336.639 1410.23 335.645C1415.19 334.321 1419.83 332.335 1424.13 329.687L1425.62 354.017C1421.32 358.32 1415.36 362.126 1407.75 365.437C1400.13 368.747 1391.36 370.402 1381.43 370.402Z" fill="white"/>
</svg>
