<?xml version="1.0" encoding="UTF-8"?>
<svg version="1.1" xmlns="http://www.w3.org/2000/svg" width="5000" height="3333">
<path d="M0 0 C1650 0 3300 0 5000 0 C5000 1099.89 5000 2199.78 5000 3333 C3350 3333 1700 3333 0 3333 C0 2233.11 0 1133.22 0 0 Z " fill="#FCD2AE" transform="translate(0,0)"/>
<path d="M0 0 C0.66 0 1.32 0 2 0 C1.40235924 3.47718262 0.13622185 5.37363005 -2.1875 8 C-2.75855469 8.66 -3.32960938 9.32 -3.91796875 10 C-6.41030613 12.39414022 -9.09581804 14.13093579 -12 16 C-18.89052838 20.88455214 -25.42639511 26.10491557 -31.8125 31.625 C-32.422146 32.15085693 -33.03179199 32.67671387 -33.65991211 33.21850586 C-37.42028028 36.50480506 -40.96555322 39.92943225 -44.41625977 43.5402832 C-46.65101228 45.60003121 -49.29439724 46.64719862 -52 48 C-53.23112296 49.42551079 -54.45778935 50.85715457 -55.609375 52.34765625 C-57.14768504 54.1754797 -58.80280119 55.6430754 -60.625 57.1875 C-66.05904214 61.80955883 -71.00113381 66.91843198 -76 72 C-76 69 -76 69 -74 66.8125 C-73.34 66.214375 -72.68 65.61625 -72 65 C-72.33 64.34 -72.66 63.68 -73 63 C-65.86369169 54.61483774 -58.42973451 47.26393009 -49.82421875 40.38671875 C-45.95925125 37.12047374 -42.48137745 33.53482397 -38.99609375 29.87109375 C-37 28 -37 28 -35 28 C-34.505 26.515 -34.505 26.515 -34 25 C-33.01 25 -32.02 25 -31 25 C-30.34 23.68 -29.68 22.36 -29 21 C-28.34 21 -27.68 21 -27 21 C-27 20.34 -27 19.68 -27 19 C-24.41600989 16.69286597 -22.33994921 15.73061389 -19 15 C-15.41589829 13.62960817 -14.63458557 12.37133274 -13 9 C-11.03294199 7.22964779 -9.67733248 6.13109661 -7.0625 5.625 C-3.91740377 4.67194054 -2.25523111 2.3145793 0 0 Z " fill="#F0D7CA" transform="translate(3825,2749)"/>
<path d="M0 0 C0.66 0.33 1.32 0.66 2 1 C-2.625 5.875 -2.625 5.875 -6 7 C-4.60667426 3.63279613 -3.0210714 2.0140476 0 0 Z M-8 7 C-7.34 7.33 -6.68 7.66 -6 8 C-6.886875 8.721875 -7.77375 9.44375 -8.6875 10.1875 C-10.76168289 11.90708019 -12.6096959 13.62493829 -14.5 15.5625 C-17.14986419 18.14611758 -19.90588294 19.97935212 -23 22 C-27.07638621 24.98789774 -27.07638621 24.98789774 -30 29 C-30.5775 29.268125 -31.155 29.53625 -31.75 29.8125 C-34.07428604 31.03920652 -35.57964349 32.49173869 -37.3828125 34.37890625 C-39.50974147 36.51097273 -41.75237854 38.49581528 -44 40.5 C-47.43819121 43.57814464 -50.77845207 46.69367449 -54 50 C-55.43614706 51.43885167 -56.87374509 52.87625601 -58.3125 54.3125 C-59.00988281 55.00988281 -59.70726563 55.70726563 -60.42578125 56.42578125 C-61.20501953 57.20501953 -61.20501953 57.20501953 -62 58 C-62.66 57.67 -63.32 57.34 -64 57 C-56.86369169 48.61483774 -49.42973451 41.26393009 -40.82421875 34.38671875 C-36.95925125 31.12047374 -33.48137745 27.53482397 -29.99609375 23.87109375 C-28 22 -28 22 -26 22 C-25.67 21.01 -25.34 20.02 -25 19 C-24.01 19 -23.02 19 -22 19 C-21.34 17.68 -20.68 16.36 -20 15 C-19.34 15 -18.68 15 -18 15 C-18 14.34 -18 13.68 -18 13 C-15.41115825 10.68853415 -13.32905597 9.77677973 -10 9 C-9.34 8.34 -8.68 7.68 -8 7 Z " fill="#F0CEBB" transform="translate(3816,2755)"/>
<path d="M0 0 C1.65 0 3.3 0 5 0 C4.4264514 3.32658187 3.64008597 4.88793122 1 7 C-1.2922742 8.51045446 -3.53906184 9.74715875 -6 11 C-6.66 10.67 -7.32 10.34 -8 10 C-7.01 9.34 -6.02 8.68 -5 8 C-5.99 7.67 -6.98 7.34 -8 7 C-8 6.34 -8 5.68 -8 5 C-6.576875 4.87625 -6.576875 4.87625 -5.125 4.75 C-1.89538209 4.34925077 -1.89538209 4.34925077 -0.625 1.9375 C-0.41875 1.298125 -0.2125 0.65875 0 0 Z M-10.125 6.1875 C-9.42375 6.455625 -8.7225 6.72375 -8 7 C-10.77058501 9.97581353 -13.48535116 11.97907692 -17 14 C-18.34631825 14.98244845 -19.68441297 15.97676564 -21 17 C-19.67940081 11.32142347 -16.71533667 5.75769543 -10.125 6.1875 Z " fill="#F5CFB9" transform="translate(3546,2973)"/>
<path d="M0 0 C0.33 0.66 0.66 1.32 1 2 C0.01 2.33 -0.98 2.66 -2 3 C-3.00642948 4.32848691 -4.00692179 5.66150329 -5 7 C-5.66 7 -6.32 7 -7 7 C-7.33 7.99 -7.66 8.98 -8 10 C-9.65 10.33 -11.3 10.66 -13 11 C-13.33 10.34 -13.66 9.68 -14 9 C-13.34 9 -12.68 9 -12 9 C-12 7.68 -12 6.36 -12 5 C-12.66 4.67 -13.32 4.34 -14 4 C-13 2 -13 2 -9.8125 0.875 C-6.36250398 0.08319763 -3.515707 -0.1714979 0 0 Z " fill="#FEEAD2" transform="translate(154,1253)"/>
<path d="M0 0 C1.134375 0.020625 2.26875 0.04125 3.4375 0.0625 C3.4375 3.3625 3.4375 6.6625 3.4375 10.0625 C0.7975 10.0625 -1.8425 10.0625 -4.5625 10.0625 C-4.58939216 8.58343108 -4.60884621 7.10422517 -4.625 5.625 C-4.63660156 4.80128906 -4.64820313 3.97757813 -4.66015625 3.12890625 C-4.49001835 -0.47121162 -3.73687179 0.06555915 0 0 Z " fill="#FFBD80" transform="translate(1636.5625,1789.9375)"/>
<path d="M0 0 C2.64 0 5.28 0 8 0 C8 2.64 8 5.28 8 8 C5.36 8 2.72 8 0 8 C0 5.36 0 2.72 0 0 Z " fill="#FFDCB4" transform="translate(2568,1160)"/>
<path d="M0 0 C3 1 3 1 4.3125 2.8125 C5 5 5 5 4.125 7 C3.75375 7.66 3.3825 8.32 3 9 C3 10.32 3 11.64 3 13 C1.68 12.67 0.36 12.34 -1 12 C-1 12.66 -1 13.32 -1 14 C-1.66 13.67 -2.32 13.34 -3 13 C-2.01 11.35 -1.02 9.7 0 8 C-0.66 8 -1.32 8 -2 8 C-2.6875 6.25 -2.6875 6.25 -3 4 C-1.5625 1.75 -1.5625 1.75 0 0 Z " fill="#FEE8D0" transform="translate(196,1348)"/>
<path d="M0 0 C0.99 0.33 1.98 0.66 3 1 C3.33 2.65 3.66 4.3 4 6 C4.99 5.34 5.98 4.68 7 4 C7.33 4.99 7.66 5.98 8 7 C7.38125 7.28875 6.7625 7.5775 6.125 7.875 C3.86674235 8.93720042 3.86674235 8.93720042 2 11 C0 9 0 9 -0.1953125 6.8359375 C-0.17210937 6.02382812 -0.14890625 5.21171875 -0.125 4.375 C-0.10695313 3.55773438 -0.08890625 2.74046875 -0.0703125 1.8984375 C-0.04710937 1.27195312 -0.02390625 0.64546875 0 0 Z " fill="#EBB29E" transform="translate(1374,2832)"/>
<path d="M0 0 C2 3 2 3 2 5 C2.99 5.66 3.98 6.32 5 7 C3.68 7.33 2.36 7.66 1 8 C1 7.34 1 6.68 1 6 C-0.65 6.66 -2.3 7.32 -4 8 C-4.33 6.35 -4.66 4.7 -5 3 C-3.35 2.01 -1.7 1.02 0 0 Z " fill="#FEEACF" transform="translate(246,1423)"/>
<path d="M0 0 C-0.33 2.97 -0.66 5.94 -1 9 C-1.66 8.67 -2.32 8.34 -3 8 C-3 6.35 -3 4.7 -3 3 C-3.66 3 -4.32 3 -5 3 C-6.33333333 1.66666667 -7.66666667 0.33333333 -9 -1 C-5.23375329 -2.25541557 -3.62811066 -1.37061958 0 0 Z " fill="#FEE9CC" transform="translate(249,1444)"/>
<path d="M0 0 C1.2065625 0.0309375 1.2065625 0.0309375 2.4375 0.0625 C2.1075 2.0425 1.7775 4.0225 1.4375 6.0625 C-0.2125 6.3925 -1.8625 6.7225 -3.5625 7.0625 C-3.60504356 5.06295254 -3.60330783 3.06208364 -3.5625 1.0625 C-2.5625 0.0625 -2.5625 0.0625 0 0 Z " fill="#EBB19D" transform="translate(1307.5625,2850.9375)"/>
<path d="M0 0 C-0.33 1.65 -0.66 3.3 -1 5 C-1.99 5.33 -2.98 5.66 -4 6 C-4 6.66 -4 7.32 -4 8 C-4.66 8 -5.32 8 -6 8 C-6.36458333 3.50347222 -6.36458333 3.50347222 -4.6875 1.1875 C-3 0 -3 0 0 0 Z " fill="#E9AA92" transform="translate(1244,2940)"/>
<path d="M0 0 C0.99 0 1.98 0 3 0 C2.40072174 3.35595828 1.15377564 5.37801226 -1 8 C-2.32 7.34 -3.64 6.68 -5 6 C-5 5.34 -5 4.68 -5 4 C-3.68 4 -2.36 4 -1 4 C-0.67 2.68 -0.34 1.36 0 0 Z " fill="#E8AA92" transform="translate(1245,2924)"/>
<path d="M0 0 C0.66 0.66 1.32 1.32 2 2 C1.401875 2.556875 0.80375 3.11375 0.1875 3.6875 C-1.9863446 5.98556429 -3.46898083 8.24416549 -5 11 C-5.99 10.01 -6.98 9.02 -8 8 C-7.67 7.34 -7.34 6.68 -7 6 C-6.34 6 -5.68 6 -5 6 C-3.2856382 4.04072937 -1.61594832 2.04119788 0 0 Z " fill="#E9AA93" transform="translate(1308,2917)"/>
<path d="M0 0 C0.66 0 1.32 0 2 0 C4 3 4 3 4 6 C3.34 6 2.68 6 2 6 C2 6.66 2 7.32 2 8 C1.01 8 0.02 8 -1 8 C-1.625 5.125 -1.625 5.125 -2 2 C-1.34 1.34 -0.68 0.68 0 0 Z " fill="#FEEBD2" transform="translate(36,1307)"/>
<path d="M0 0 C0.66 0.66 1.32 1.32 2 2 C1.625 5.125 1.625 5.125 1 8 C0.01 7.67 -0.98 7.34 -2 7 C-3.1875 4.4375 -3.1875 4.4375 -4 2 C-2.68 1.34 -1.36 0.68 0 0 Z " fill="#FEE9D0" transform="translate(92,1295)"/>
<path d="M0 0 C0.66 0.33 1.32 0.66 2 1 C-0.79716804 4.29078593 -4.19528578 6.06305458 -8 8 C-8.66 7.67 -9.32 7.34 -10 7 C-6.7 4.69 -3.4 2.38 0 0 Z " fill="#F6D7C6" transform="translate(3548,2976)"/>
<path d="M0 0 C0.99 0 1.98 0 3 0 C2.62403791 2.78211944 2.32681541 4.5879284 0.5625 6.8125 C-1 8 -1 8 -3 8 C-3 6.68 -3 5.36 -3 4 C-2.01 4 -1.02 4 0 4 C0 2.68 0 1.36 0 0 Z " fill="#F3CCC0" transform="translate(1509,2831)"/>
<path d="M0 0 C0.66 0.66 1.32 1.32 2 2 C0.515 4.475 0.515 4.475 -1 7 C-1.99 6.67 -2.98 6.34 -4 6 C-3.6875 4.125 -3.6875 4.125 -3 2 C-2.01 1.34 -1.02 0.68 0 0 Z " fill="#EBB39E" transform="translate(1461,3128)"/>
<path d="M0 0 C0.99 0 1.98 0 3 0 C2.34 1.98 1.68 3.96 1 6 C-0.32 6 -1.64 6 -3 6 C-1.125 1.125 -1.125 1.125 0 0 Z " fill="#EEBCAC" transform="translate(1414,3062)"/>
<path d="M0 0 C1.32 0 2.64 0 4 0 C4 0.66 4 1.32 4 2 C4.66 2 5.32 2 6 2 C5.6875 3.9375 5.6875 3.9375 5 6 C4.01 6.33 3.02 6.66 2 7 C1.34 4.69 0.68 2.38 0 0 Z " fill="#FEEBD3" transform="translate(106,1255)"/>
<path d="M0 0 C1.32 0.33 2.64 0.66 4 1 C3.3125 2.9375 3.3125 2.9375 2 5 C-0.625 5.75 -0.625 5.75 -3 6 C-2.01 4.02 -1.02 2.04 0 0 Z " fill="#F3CDC1" transform="translate(1486,2962)"/>
<path d="M0 0 C0.33 0.66 0.66 1.32 1 2 C0.01 1.67 -0.98 1.34 -2 1 C-1.34 0.67 -0.68 0.34 0 0 Z M-7 2 C-5.35 2 -3.7 2 -2 2 C-1.67 3.32 -1.34 4.64 -1 6 C-1.99 6.495 -1.99 6.495 -3 7 C-5.125 6.0625 -5.125 6.0625 -7 5 C-7 4.01 -7 3.02 -7 2 Z " fill="#E9AB93" transform="translate(1311,2927)"/>
<path d="M0 0 C0.12375 0.53625 0.2475 1.0725 0.375 1.625 C1.12206016 4.4638286 2.05303364 7.22223202 3 10 C2.34 10 1.68 10 1 10 C1 9.34 1 8.68 1 8 C0.01 7.67 -0.98 7.34 -2 7 C-1.125 1.125 -1.125 1.125 0 0 Z " fill="#FEE9CE" transform="translate(264,1359)"/>
<path d="M0 0 C1.32 0.33 2.64 0.66 4 1 C3.34 2.32 2.68 3.64 2 5 C0.68 4.67 -0.64 4.34 -2 4 C-1.34 2.68 -0.68 1.36 0 0 Z " fill="#F3CEC2" transform="translate(1617,3288)"/>
<path d="M0 0 C0.66 0 1.32 0 2 0 C2.66 1.98 3.32 3.96 4 6 C2.02 6 0.04 6 -2 6 C-2 5.34 -2 4.68 -2 4 C-1.34 4 -0.68 4 0 4 C-0.33 3.01 -0.66 2.02 -1 1 C-0.67 0.67 -0.34 0.34 0 0 Z " fill="#E9AA93" transform="translate(1290,2942)"/>
<path d="M0 0 C1.32 0 2.64 0 4 0 C4 1.98 4 3.96 4 6 C3.01 6.33 2.02 6.66 1 7 C0.67 4.69 0.34 2.38 0 0 Z " fill="#ECB6A3" transform="translate(1338,2927)"/>
<path d="M0 0 C0.66 0 1.32 0 2 0 C2 0.66 2 1.32 2 2 C4.475 2.99 4.475 2.99 7 4 C6.67 4.66 6.34 5.32 6 6 C3.13275314 5.42655063 2.1385485 5.1385485 0 3 C0 2.01 0 1.02 0 0 Z " fill="#F1C9BA" transform="translate(1536,2910)"/>
<path d="M0 0 C0.66 0.33 1.32 0.66 2 1 C1.67 2.32 1.34 3.64 1 5 C-0.32 4.67 -1.64 4.34 -3 4 C-2.01 2.68 -1.02 1.36 0 0 Z M-5 4 C-4.34 4 -3.68 4 -3 4 C-3 4.99 -3 5.98 -3 7 C-3.66 7 -4.32 7 -5 7 C-5 6.01 -5 5.02 -5 4 Z " fill="#F2CCC0" transform="translate(1209,2745)"/>
<path d="M0 0 C0.66 0.33 1.32 0.66 2 1 C2.33 1.99 2.66 2.98 3 4 C2.01 4 1.02 4 0 4 C-0.33 5.32 -0.66 6.64 -1 8 C-1.66 7.67 -2.32 7.34 -3 7 C-2.67 5.35 -2.34 3.7 -2 2 C-1.34 2 -0.68 2 0 2 C0 1.34 0 0.68 0 0 Z " fill="#FEE9CD" transform="translate(328,1343)"/>
<path d="M0 0 C0.66 0 1.32 0 2 0 C1.67 1.65 1.34 3.3 1 5 C-0.32 5.33 -1.64 5.66 -3 6 C-1.125 1.125 -1.125 1.125 0 0 Z " fill="#F1C7B9" transform="translate(1558,2990)"/>
<path d="M0 0 C1.32 0 2.64 0 4 0 C4 0.66 4 1.32 4 2 C4.66 2.33 5.32 2.66 6 3 C4.125 4.0625 4.125 4.0625 2 5 C1.34 4.67 0.68 4.34 0 4 C0 2.68 0 1.36 0 0 Z " fill="#E8A990" transform="translate(1255,2917)"/>
<path d="M0 0 C0.66 0.99 1.32 1.98 2 3 C1.34 4.32 0.68 5.64 0 7 C-0.99 7 -1.98 7 -3 7 C-2.67 5.35 -2.34 3.7 -2 2 C-1.34 2 -0.68 2 0 2 C0 1.34 0 0.68 0 0 Z " fill="#E9AB93" transform="translate(1323,2862)"/>
<path d="M0 0 C0.99 0 1.98 0 3 0 C2.1875 2.4375 2.1875 2.4375 1 5 C0.01 5.33 -0.98 5.66 -2 6 C-1.125 1.125 -1.125 1.125 0 0 Z " fill="#EBAF9B" transform="translate(1372,2860)"/>
<path d="M0 0 C0.99 0.66 1.98 1.32 3 2 C2.01 3.485 2.01 3.485 1 5 C-1.625 5.1875 -1.625 5.1875 -4 5 C-4 4.01 -4 3.02 -4 2 C-2.68 1.34 -1.36 0.68 0 0 Z " fill="#EDB6A4" transform="translate(1172,2840)"/>
<path d="M0 0 C0.66 0.66 1.32 1.32 2 2 C1.625 5.125 1.625 5.125 1 8 C0.01 8 -0.98 8 -2 8 C-1.34 6.68 -0.68 5.36 0 4 C-0.66 3.34 -1.32 2.68 -2 2 C-1.34 1.34 -0.68 0.68 0 0 Z " fill="#ECB29F" transform="translate(1334,2812)"/>
<path d="M0 0 C0.268125 0.639375 0.53625 1.27875 0.8125 1.9375 C1.88667752 4.33131686 1.88667752 4.33131686 5 5 C3.35 5.66 1.7 6.32 0 7 C0 6.01 0 5.02 0 4 C-0.66 3.67 -1.32 3.34 -2 3 C-1.34 2.01 -0.68 1.02 0 0 Z " fill="#FEE9D0" transform="translate(174,1275)"/>
<path d="M0 0 C2.99324263 1.0975223 3.84610901 1.67682892 5.25 4.625 C5.4975 5.40875 5.745 6.1925 6 7 C5.01 7 4.02 7 3 7 C3 6.34 3 5.68 3 5 C2.34 5 1.68 5 1 5 C0.67 3.35 0.34 1.7 0 0 Z " fill="#FEE9CD" transform="translate(211,1419)"/>
<path d="M0 0 C0.99 0 1.98 0 3 0 C3.33 0.99 3.66 1.98 4 3 C2.625 4.5 2.625 4.5 1 6 C0.34 6 -0.32 6 -1 6 C-1.042721 4.33388095 -1.04063832 2.66617115 -1 1 C-0.67 0.67 -0.34 0.34 0 0 Z " fill="#FEEAD0" transform="translate(173,1236)"/>
<path d="M0 0 C0.99 0 1.98 0 3 0 C3 1.65 3 3.3 3 5 C1.68 5 0.36 5 -1 5 C-0.67 3.35 -0.34 1.7 0 0 Z " fill="#EDB8A5" transform="translate(1274,2800)"/>
<path d="M0 0 C0.99 0.99 1.98 1.98 3 3 C2.34 3.66 1.68 4.32 1 5 C0.01 5 -0.98 5 -2 5 C-2 3.68 -2 2.36 -2 1 C-1.34 0.67 -0.68 0.34 0 0 Z " fill="#FECB9F" transform="translate(645,1692)"/>
<path d="M0 0 C-0.8125 2.4375 -0.8125 2.4375 -2 5 C-2.99 5.33 -3.98 5.66 -5 6 C-5 4.68 -5 3.36 -5 2 C-2 0 -2 0 0 0 Z " fill="#FEE8CD" transform="translate(229,1432)"/>
<path d="M0 0 C1.32 0.33 2.64 0.66 4 1 C4 2.32 4 3.64 4 5 C2.68 5.33 1.36 5.66 0 6 C0 4.02 0 2.04 0 0 Z " fill="#FEE8D0" transform="translate(215,1381)"/>
</svg>
